<svg height="939.072" viewBox="0 0 1096.079 939.072" width="1096.079" xmlns="http://www.w3.org/2000/svg"><path d="m639.696 782.754c-12.521-11.22-20.125-69.222-13.344-80.606s246.529-51.951 263.068-45.243 30.697 38.487 32.257 54.823-16.073 65.635-31.709 79.675-126.239 33.156-146.708 35.111c-20.469 1.954-91.043-32.54-103.564-43.76z" fill="#3054e5"/><path d="m741.511 829.091c-23.879 0-91.481-33.721-103.484-44.475-13.519-12.114-21.348-71.117-13.823-83.748.96-1.611 2.957-4.964 43.241-13.976 22.822-5.105 53.491-11.006 86.361-16.615 45.81-7.818 126.121-19.924 136.553-15.689 18.31 7.428 32.294 41.063 33.806 56.902 1.674 17.529-16.854 67.698-32.527 81.773-16.877 15.153-129.818 33.989-148.141 35.738-.622.06-1.287.089-1.986.089zm-113.051-125.597c-6.187 10.675 1.521 67.198 12.904 77.397 12.432 11.14 82.679 44.937 101.658 43.134 24.202-2.311 130.819-21.502 145.275-34.482 14.535-13.053 32.438-61.365 30.89-77.578-1.58-16.55-15.966-46.764-30.708-52.744-6.703-2.719-63.57 4.039-132.275 15.72-78.084 13.275-124.02 24.602-127.745 28.554z" fill="#3054e5"/><path d="m540.195 716.344s129.042 203.005 141.939 208.42c12.897 5.414 45.759 18.388 61.555 7.726s-117.007-227.525-117.007-227.525l-86.487 11.38z" fill="#3054e5"/><path d="m727.538 939.066c-11.827 0-27.331-4.005-46.372-11.998-2.396-1.006-8.762-3.678-76.926-107.17-33.496-50.856-65.832-101.706-66.155-102.214-.458-.721-.517-1.625-.155-2.398s1.093-1.31 1.939-1.421l86.487-11.379c.981-.137 1.943.331 2.458 1.173.332.543 33.582 54.892 64.474 109.845 18.16 32.306 31.97 58.507 41.046 77.877 15.781 33.678 14.494 40.656 10.753 43.182-4.45 3.004-10.312 4.504-17.55 4.504zm-183.126-220.756c7.698 12.072 35.313 55.271 63.808 98.54 60.657 92.106 72.578 104.54 74.888 105.61 36.164 15.182 52.145 12.707 59.183 7.957.266-.372 2.647-5.083-13.655-39.398-9.227-19.423-22.981-45.38-40.878-77.148-27.75-49.259-57.056-97.513-62.361-106.216l-80.983 10.655z" fill="#3054e5"/><path d="m921.537 710.522c-2.105-16.644-15.974-47.069-32.117-53.617-16.539-6.708-243.546 37.785-263.068 45.243l-85.334 18.097s13.533 21.247 30.966 45.616c9.122-1.005 200.177-11.274 221.965-15.396 16.598-3.14 113.673-31.498 127.588-39.943z" fill="#2043b7"/><path d="m571.983 768.36c-.801 0-1.56-.385-2.033-1.045-17.273-24.145-30.906-45.515-31.042-45.728-.44-.691-.514-1.555-.197-2.311s.985-1.308 1.786-1.478l85.15-18.059c10.601-3.924 71.187-16.686 132.906-27.986 44.805-8.204 121.507-21.351 131.805-17.167 16.871 6.844 31.431 38.01 33.658 55.621.124.979-.34 1.938-1.183 2.451-14.66 8.896-112.326 37.217-128.42 40.261-15.681 2.967-117.072 9.021-177.65 12.638-23.435 1.399-41.946 2.505-44.506 2.787-.092.01-.183.015-.274.015zm-26.9-46.422c4.27 6.584 15.087 23.056 28.105 41.308 5.295-.41 21.622-1.385 43.276-2.678 60.46-3.61 161.651-9.652 177.019-12.56 17.534-3.317 107.913-29.987 125.329-38.84-2.761-16.845-16.109-44.177-30.334-49.948-15.289-6.198-240.837 37.47-261.236 45.262-.121.047-.246.084-.374.11l-81.787 17.346z" fill="#2043b7"/><path d="m2.702 266.68c2.36-20.236 78.149-110.873 92.469-125.741s185.138-102.251 206.455-104.286 117.248 4.958 135.502 1.988 202.473-34.256 221.927-36.114c19.454-1.857 250.695 91.928 271.066 103.469 20.37 11.541 104.548 140.447 110.145 163.608 5.597 23.162 51.167 198.367 53.277 220.464 2.11 22.096-85.366 156.604-107.422 172.219-22.056 15.616-562.515 79.741-590.262 78.202s-155.445-58.182-167.801-76.406c-12.356-18.223-20.527-147.165-20.527-147.165s-158.128-64.659-173.247-80.061c-15.12-15.401-33.942-149.94-31.582-170.177z" fill="#3054e5"/><path d="m396.98 743.014c-.496 0-.915-.009-1.261-.028-27.38-1.519-156.375-57.801-169.732-77.498-11.99-17.683-19.837-131.398-20.852-146.849-16.933-6.945-157.943-65.061-172.637-80.03-16.469-16.778-34.506-153.127-32.279-172.218 2.535-21.738 79.684-113.202 93.152-127.186 7.817-8.116 56.496-34.701 101.272-57.449 43.823-22.265 94.879-46.458 106.746-47.591 10.159-.971 36.219.046 63.808 1.123 30.521 1.191 62.081 2.423 71.53.885 3.747-.609 14.514-2.417 29.417-4.918 57.493-9.651 177.13-29.733 192.672-31.216 20.698-1.981 251.971 92.131 272.536 103.782 11.217 6.354 39.104 44.582 61.463 78.238 21.852 32.894 46.782 74.136 49.881 86.958 1.251 5.178 4.436 17.702 8.844 35.036 14.97 58.867 42.836 168.442 44.491 185.777 1.483 15.532-34.09 72.904-45.028 90.118-21.954 34.55-51.17 75.692-63.438 84.378-13.379 9.473-190.024 32.871-294.129 45.975-140.968 17.744-276.798 32.711-296.455 32.712zm-83.581-704.236c-4.887 0-8.853.107-11.535.363-9.063.865-51.241 19.782-104.957 47.071-51.688 26.26-93.717 50.005-99.935 56.461-14.619 15.179-89.532 104.968-91.787 124.297-2.287 19.609 16.724 153.713 30.881 168.136 11.673 11.891 117.88 57.2 172.409 79.497.886.363 1.488 1.2 1.549 2.156 2.812 44.363 10.631 131.954 20.102 145.921 5.181 7.641 36.16 25.155 77.086 43.583 39.978 18 76.487 31.047 88.784 31.729 13.587.749 155.062-14.81 296.815-32.652 171.175-21.546 283.01-38.825 291.865-45.094 9.881-6.996 36.001-41.894 62.108-82.979 27.338-43.023 45.129-77.971 44.27-86.962-1.618-16.951-29.422-126.283-44.359-185.02-4.412-17.351-7.6-29.888-8.859-35.095-2.493-10.316-23.178-46.218-49.185-85.365-27.694-41.688-51.152-71.776-59.762-76.655-10.338-5.856-73.683-32.309-135.558-56.606-76.122-29.894-126.233-47.252-134.038-46.549-15.365 1.468-134.884 21.529-192.321 31.17-14.91 2.503-25.683 4.312-29.442 4.923-9.945 1.617-41.76.377-72.528-.824-19.056-.743-38.586-1.506-51.602-1.506z" fill="#3054e5"/><path d="m131.75 162.996c16.132-13.203 165.912-78.559 180.943-81.724s120.459.307 134.178-2.771 193.743-31.744 211.343-32.064 251.517 88.627 263.631 94.469c12.115 5.842 69.144 116.501 76.93 128.356 7.785 11.855 55.948 57.471 55.948 57.471-7.031-27.707-12.706-49.876-14.458-57.13-5.597-23.162-89.775-152.067-110.146-163.608-20.37-11.54-251.611-105.325-271.065-103.468s-203.672 33.143-221.927 36.114c-18.254 2.97-114.184-4.023-135.502-1.988-21.317 2.035-192.135 89.419-206.455 104.286-14.32 14.868-90.109 105.505-92.469 125.741-1.178 10.099 2.92 48.665 9.2 86.684 0 0 19.812-67.803 32.985-82.957s70.732-94.208 86.864-107.411z" fill="#668bff"/><path d="m11.903 355.864c-.051 0-.101-.002-.152-.005-1.165-.07-2.126-.937-2.316-2.088-6.379-38.619-10.427-77.001-9.216-87.38 2.536-21.74 79.684-113.202 93.152-127.186 7.817-8.115 56.496-34.701 101.272-57.449 43.823-22.265 94.879-46.458 106.746-47.591 10.16-.969 36.222.047 63.814 1.124 30.518 1.19 62.074 2.422 71.524.885 3.734-.607 14.447-2.405 29.273-4.895 57.536-9.658 177.261-29.755 192.817-31.24 20.721-1.979 251.971 92.131 272.535 103.782 11.217 6.354 39.104 44.582 61.463 78.238 21.852 32.894 46.782 74.136 49.88 86.958 1.247 5.161 4.417 17.624 8.803 34.874 1.731 6.808 3.634 14.291 5.648 22.228.274 1.079-.198 2.209-1.158 2.771-.96.564-2.176.424-2.984-.341-1.975-1.871-48.464-45.954-56.318-57.914-2.212-3.368-7.956-13.883-15.905-28.435-18.168-33.26-51.985-95.167-60.021-99.042-13.976-6.739-244.834-94.223-262.411-94.223-.031 0-.06 0-.09 0-17.322.314-195.591 28.582-210.841 32.004-7.084 1.589-35.945 1.503-66.5 1.415-29.693-.088-60.398-.177-67.71 1.362-15.899 3.348-165.173 69.179-179.875 81.212l-1.583-1.935 1.583 1.935c-10.47 8.569-39.848 46.884-61.298 74.86-11.146 14.536-20.771 27.09-25.262 32.257-12.665 14.569-32.275 81.345-32.472 82.018-.313 1.071-1.295 1.799-2.398 1.799zm301.495-317.086c-4.886 0-8.854.107-11.535.363-9.062.865-51.241 19.782-104.956 47.071-51.688 26.26-93.717 50.005-99.935 56.461-14.619 15.178-89.532 104.966-91.787 124.297-1.037 8.889 2.24 41.337 7.476 75.29 6.162-19.771 20.015-61.617 30.339-73.493 4.39-5.051 13.972-17.548 25.068-32.019 22.802-29.74 51.181-66.752 62.099-75.688 16.955-13.877 167.497-79.179 182.012-82.235 7.828-1.648 37.423-1.565 68.755-1.47 28.935.085 58.855.172 65.391-1.294 15.306-3.434 194.405-31.808 211.845-32.125h.107c19.237 0 251.975 88.604 264.656 94.719 8.757 4.223 34.437 50.255 62.237 101.148 7.596 13.905 13.595 24.889 15.696 28.088 5.871 8.939 36.018 38.271 49.293 51.022-1.228-4.833-2.402-9.449-3.506-13.79-4.391-17.267-7.563-29.742-8.817-34.933-2.493-10.316-23.178-46.218-49.185-85.365-27.694-41.688-51.153-71.776-59.763-76.655-10.337-5.856-73.682-32.309-135.558-56.606-76.122-29.894-126.234-47.252-134.038-46.549-15.378 1.469-134.985 21.546-192.465 31.194-14.833 2.49-25.551 4.289-29.298 4.899-9.945 1.617-41.758.375-72.522-.824-19.06-.744-38.591-1.507-51.609-1.507z" fill="#668bff"/><path d="m750.771 353.458s-119.149 34.415-139.079 37.239c-19.929 2.824-186.331-10.933-206.382-10.24-20.051.694-159.419 42.68-176.501 59.757-17.082 17.078-24.028 78.442-24.028 78.442l-60.268-28.223s53.132-87.346 63.359-95.424 188.25-55.942 200.192-55.94c11.941.002 179.705 25.919 196.952 24.779s145.754-10.391 145.754-10.391z" fill="#2043b7"/><path d="m204.782 521.157c-.361 0-.724-.078-1.06-.236l-60.268-28.224c-.643-.301-1.128-.861-1.333-1.541s-.112-1.415.257-2.021c2.179-3.583 53.486-87.825 63.945-96.087 6.846-5.407 72.452-23.794 100.341-31.448 44.21-12.134 94.77-25.029 101.4-25.029 5.031 0 34.425 4.114 71.639 9.323 51.312 7.183 115.169 16.09 125.148 15.462 17.043-1.127 144.454-10.299 145.739-10.391 1.274-.105 2.416.795 2.641 2.054.225 1.26-.538 2.486-1.767 2.841-4.872 1.407-119.547 34.497-139.422 37.313-11.999 1.7-73.843-2.343-128.407-5.912-37.63-2.459-70.124-4.584-78.239-4.305-18.647.646-158.307 42.519-174.82 59.026-16.269 16.266-23.243 76.351-23.311 76.956-.091.8-.561 1.508-1.264 1.9-.378.212-.799.318-1.221.318zm-56.681-31.805 54.625 25.581c1.763-13.401 9.004-61.178 24.317-76.486 10.981-10.979 65.296-29.276 88.138-36.635 40.448-13.028 79.999-23.506 90.044-23.854 8.362-.291 40.974 1.844 78.738 4.313 51.633 3.376 115.891 7.572 127.379 5.95 14.138-2.003 79.895-20.404 115.573-30.542-38.091 2.737-109.287 7.842-121.733 8.664-10.489.709-71.948-7.908-126.171-15.498-34.077-4.77-66.264-9.275-70.947-9.275-5.252 0-50.146 11.147-100.077 24.851-54.894 15.066-94.505 27.344-98.565 30.551-7.847 6.198-45.594 66.62-61.322 92.381z" fill="#2043b7"/><g fill="#aef45d"><path d="m803.389 210.509s114.089 32.984 117.81 41.476-20.849 72.743-18.181 79.914 169.732 66.586 169.732 66.586l7.436 30.379s-198.419-71.426-201.847-77.351c-3.427-5.925 22.832-80.054 20.041-86.266-2.792-6.212-97.306-45.521-97.306-45.521l2.315-9.216z"/><path d="m1080.186 431.364c-.284 0-.571-.049-.846-.147-.496-.179-50.189-18.074-99.662-36.463-100.909-37.508-102.596-40.423-103.502-41.989-1.979-3.422.633-14.11 10.038-46.681 4.4-15.236 10.398-36.01 9.872-39.764-4.26-4.612-52.352-26.146-95.972-44.286-1.143-.476-1.766-1.717-1.465-2.918l2.315-9.217c.165-.657.591-1.22 1.179-1.559.588-.338 1.289-.423 1.94-.233.286.082 28.889 8.362 57.58 17.575 59.048 18.959 60.924 23.241 61.826 25.3 2.192 5.002-2.18 20.607-9.642 45.714-3.838 12.915-9.06 30.483-8.53 34.104 7.102 6.52 106.586 43.393 168.271 65.33.793.282 1.391.943 1.591 1.761l7.437 30.379c.219.895-.072 1.837-.756 2.453-.467.42-1.065.642-1.672.642zm-199.659-81.223c8.471 6.065 119.701 47.239 196.123 74.791l-6.008-24.545c-7.324-2.612-45.065-16.109-82.633-30.165-85.268-31.899-86.561-35.375-87.333-37.451-1.392-3.742 1.484-14.301 8.379-37.499 4.54-15.275 11.386-38.311 9.885-42.213-3.994-5.338-61.028-24.114-113.756-39.429l-1.159 4.617c6.198 2.594 25.921 10.889 45.668 19.622 48.832 21.595 50.222 24.688 50.969 26.352 1.576 3.506-1.56 15.256-9.643 43.249-4.693 16.251-11.076 38.356-10.49 42.671zm24.611-19.52s0 0 0 0z"/><circle cx="791.785" cy="210.509" r="21.7"/><path d="m791.785 234.709c-13.344 0-24.2-10.856-24.2-24.2s10.856-24.199 24.2-24.199 24.2 10.855 24.2 24.199-10.856 24.2-24.2 24.2zm0-43.399c-10.587 0-19.2 8.612-19.2 19.199s8.613 19.2 19.2 19.2 19.2-8.613 19.2-19.2-8.613-19.199-19.2-19.199z"/><circle cx="521.91" cy="198.104" r="29.298"/><path d="m521.91 229.901c-17.533 0-31.798-14.264-31.798-31.797s14.264-31.798 31.798-31.798 31.798 14.265 31.798 31.798-14.264 31.797-31.798 31.797zm0-58.595c-14.776 0-26.798 12.021-26.798 26.798s12.021 26.797 26.798 26.797 26.798-12.021 26.798-26.797-12.021-26.798-26.798-26.798z"/><path d="m97.021 469.536-19.07-8.791s95.611-210.435 102.282-213.042 77.977 28.698 86.228 22.967 63.737-133.248 73.448-136.709 180.957 44.972 184.83 50.024c3.873 5.053-5.005 24.677-10.937 26.523s-158.868-50.739-166.238-47.018c-7.37 3.72-58.793 123.51-67.808 126.866-9.014 3.356-83.24-22.389-90.775-19.686s-91.962 198.866-91.962 198.866z"/><path d="m97.021 472.036c-.358 0-.715-.077-1.047-.229l-19.07-8.791c-1.249-.576-1.798-2.053-1.229-3.305.239-.526 24.191-53.227 48.65-105.567 49.897-106.775 53.09-108.023 54.998-108.769 3.412-1.34 12.619 1.63 36.131 9.807 11.08 3.854 22.538 7.838 32.048 10.551 14.448 4.121 17.144 3.122 17.538 2.882 3.335-2.518 17.885-32.391 30.722-58.748 25.168-51.675 37.645-76.241 43.308-78.259 6.612-2.371 63.055 12.625 96.11 21.765 22.235 6.147 44.524 12.633 61.152 17.792 28.509 8.845 29.642 10.323 30.391 11.302 2.423 3.161 1.377 8.719.073 12.825-1.88 5.918-6.868 15.93-12.251 17.604-2.931.92-17.474-3.377-69.629-19.698-37.911-11.864-89.659-28.032-96.276-27.404-3.579 3.267-17.636 32.378-28.966 55.842-22.621 46.847-33.847 69.129-39.045 71.064-5.121 1.908-22.523-2.65-50.574-10.383-15.278-4.211-36.078-9.938-40.009-9.337-7.351 7.356-58.118 121.775-90.729 197.545-.266.619-.772 1.104-1.401 1.346-.289.111-.592.166-.895.166zm-15.765-12.521 14.484 6.677c4.479-10.377 23.068-53.352 42.153-96.095 44.532-99.731 48.249-101.064 50.245-101.78 3.915-1.399 16.184 1.719 43.246 9.179 18.368 5.063 43.526 11.992 47.5 10.518 4.426-2.571 22.841-40.707 36.287-68.553 19.246-39.858 27.463-56.282 31.266-58.201 4.309-2.183 28.741 4.875 99.972 27.166 29.276 9.162 62.412 19.531 66.827 19.631 2.312-.967 6.559-7.243 8.794-14.279 1.523-4.794 1.242-7.3.821-8.115-3.865-2.472-38.895-13.636-89.944-27.73-57.858-15.976-88.233-22.373-92.143-21.613-5.068 2.973-25.542 45.011-40.507 75.737-19.541 40.122-28.508 57.986-32.37 60.668-5.355 3.722-24.002-2.361-54.075-12.819-12.913-4.49-28.895-10.078-32.468-9.873-7.355 8.342-63.22 128.395-100.088 209.484zm108.965-186.697s0 0 0 0zm158.204-106.995s0 0 0 0z"/><circle cx="502.624" cy="482.083" r="23.062"/><path d="m502.624 507.644c-14.095 0-25.562-11.467-25.562-25.562s11.467-25.562 25.562-25.562 25.562 11.467 25.562 25.562-11.467 25.562-25.562 25.562zm0-46.123c-11.338 0-20.562 9.224-20.562 20.562s9.224 20.562 20.562 20.562 20.562-9.224 20.562-20.562-9.224-20.562-20.562-20.562z"/><path d="m266.461 689.359s58.819-151.993 67.272-156.582c8.453-4.588 117.222 54.004 125.411 49.877s32.836-88.18 32.836-88.18l14.888 5.585s-31.459 102.318-38.348 106.475c-6.89 4.157-112.765-42.506-120.992-39.268s-55.617 134.699-55.617 134.699c-8.705-4.107-17.192-8.307-25.451-12.605z"/><path d="m291.912 704.464c-.365 0-.729-.08-1.067-.239-8.756-4.13-17.349-8.386-25.539-12.648-1.13-.588-1.637-1.932-1.177-3.12.147-.38 14.894-38.461 30.484-76.613 31.86-77.97 36.112-80.277 37.928-81.263 4.893-2.653 24.054 5.705 66.608 25.417 22.837 10.578 54.048 25.026 58.955 24.369 4.788-3.358 19.726-46.521 31.478-86.596.196-.667.66-1.223 1.281-1.533.622-.31 1.345-.348 1.996-.104l14.888 5.585c1.238.465 1.9 1.812 1.511 3.075-.079.257-7.974 25.908-16.609 51.737-17.744 53.07-21.184 55.146-22.838 56.144-3.912 2.366-18.54-2.563-63.509-19.599-22.396-8.483-52.974-20.072-57.8-19.477-6.499 5.47-36.638 84.388-54.239 133.213-.239.663-.746 1.193-1.397 1.463-.306.126-.631.189-.955.189zm-22.31-16.293c6.751 3.484 13.76 6.959 20.896 10.356 3.054-8.413 13.13-36.017 23.806-63.601 26.147-67.562 30.309-69.2 32.309-69.987 4.48-1.764 22.168 4.576 61.461 19.46 22.902 8.676 54.142 20.537 59.223 19.905 4.6-4.761 21.989-55.741 36.49-102.732l-10.172-3.815c-1.873 6.28-6.95 23.092-12.61 40.051-14.697 44.035-18.928 46.168-20.735 47.079-4.396 2.225-18.901-3.822-63.223-24.353-24.046-11.139-56.901-26.371-62.148-25.517-6.623 5.906-43.114 95.934-65.297 153.153zm197.898-83.899s0 0 0 0zm-132.739-69.226s0 0 0 0z"/><circle cx="887.838" cy="586.047" r="26.523"/><path d="m887.837 615.07c-16.003 0-29.023-13.02-29.023-29.022s13.02-29.023 29.023-29.023 29.023 13.02 29.023 29.023-13.02 29.022-29.023 29.022zm0-53.046c-13.246 0-24.023 10.777-24.023 24.023s10.777 24.022 24.023 24.022 24.023-10.776 24.023-24.022-10.777-24.023-24.023-24.023z"/><path d="m1065.814 550.972s-126.487-73.474-135.264-71.149-52.21 99.262-52.21 99.262l24.619 6.962s30.895-71.663 37.247-73.115 114.126 57.019 114.126 57.019l11.481-18.979z"/><path d="m902.96 588.548c-.226 0-.454-.03-.681-.095l-24.619-6.963c-.699-.197-1.277-.689-1.585-1.348s-.313-1.417-.016-2.08c.109-.242 11.012-24.552 22.848-48.832 24.412-50.078 28.864-51.257 31.003-51.824 2.093-.548 6.453-1.712 72.772 34.931 32.368 17.884 64.071 36.289 64.387 36.473.58.337 1 .894 1.167 1.543s.064 1.339-.283 1.913l-11.481 18.979c-.691 1.143-2.158 1.539-3.331.903-39.572-21.469-104.306-55.436-112.337-56.707-4.509 3.651-21.45 38.895-35.549 71.596-.403.936-1.319 1.511-2.295 1.511zm-21.153-11.08 19.729 5.58c2.263-5.193 8.613-19.653 15.402-34.078 17.554-37.296 20.782-38.034 22.711-38.475 1.701-.382 4.868-1.111 61.156 28.185 23.023 11.982 45.744 24.223 52.621 27.938l8.93-14.762c-47.402-27.48-122.78-69.449-131.181-69.589-5.554 3.19-29.129 50.239-49.369 95.2z"/></g><path d="m521.91 361.197s73.428-44.725 78.068-50.643c4.639-5.919 60.219-66.547 60.219-66.547s-18.28 73.615-23.278 81.719-65.981 41.865-65.981 41.865l-49.027-6.394z" fill="#2043b7"/><path d="m570.937 370.092c-.108 0-.216-.007-.323-.021l-49.027-6.396c-1.052-.137-1.903-.923-2.123-1.961-.22-1.037.239-2.101 1.145-2.652 28.24-17.201 74.225-45.999 77.401-50.051 4.646-5.927 58.071-64.216 60.343-66.694.772-.843 2.019-1.054 3.025-.514 1.007.541 1.52 1.696 1.244 2.806-1.881 7.573-18.52 74.23-23.577 82.43-5.192 8.418-60.597 39.252-66.898 42.74-.372.206-.789.313-1.211.313zm-41.677-10.457 41.184 5.372c23.415-12.991 60.99-35.152 64.346-40.593 3.416-5.539 14.423-47.221 20.569-71.423-14.907 16.293-49.845 54.552-53.414 59.104-4.13 5.27-54.248 36.239-72.685 47.539z" fill="#2043b7"/><path d="m864.296 449.412c-6.923-1.751-77.363 78.662-84.361 83.496-5.334 3.684-75.204 9.747-81.46 5.031s-7.831-47.235-9.949-46.717c-2.06.504-21.169 52.149-26.676 58.993s-32.751 29.949-38.037 30.946c-6.877 1.298-86.316-1.771-83.618 4.886s80.899 21.818 87.681 19.069 40.256-27.272 50.978-33.82c10.722-6.549 112.453-6.305 120.348-11.772s72.016-108.361 65.094-110.112z" fill="#2043b7"/><path d="m624.768 607.908c-11.834 0-41.332-6.054-42.769-6.351-41.703-8.605-43.523-13.095-44.121-14.57-.425-1.049-.305-2.189.33-3.129 2.605-3.859 16.194-4.87 63.212-4.828 10.311.013 20.048.03 21.929-.325 3.966-.763 30.612-22.674 36.553-30.057 2.781-3.457 10.018-20.974 15.833-35.049 10.029-24.275 10.318-24.346 12.197-24.806.741-.182 1.53-.033 2.165.406 1.563 1.083 1.915 3.143 3.394 15.483 1.128 9.409 3.475 28.987 6.489 31.26 1.691 1.084 13.601 2.029 39.413.136 22.625-1.66 37.269-4.109 39.141-5.24 2.21-1.527 13.194-13.295 24.823-25.755 11.874-12.722 25.332-27.141 36.663-38.535 19-19.105 22.513-20.157 24.89-19.561 1.223.31 2.097 1.287 2.337 2.614 1.071 5.922-15.544 34.721-29.671 57.838-12.159 19.897-32.034 50.735-36.95 54.14-4.153 2.876-24.32 4.054-56.879 5.738-26.082 1.35-58.541 3.028-63.588 6.111-4.252 2.597-12.217 8.119-20.649 13.965-12.971 8.992-26.383 18.291-30.693 20.038-.817.332-2.222.476-4.048.476zm-80.49-21.822c4.523 2.194 16.869 6.105 39.687 10.771 22.525 4.606 40.417 6.783 42.993 5.935 3.775-1.53 18.15-11.497 29.701-19.506 8.493-5.889 16.516-11.45 20.892-14.123 5.703-3.482 29.81-4.969 65.936-6.837 22.724-1.176 51.004-2.639 54.292-4.856 2.776-1.922 17.551-23.263 35.119-51.966 16.975-27.733 26.154-45.235 28.688-52.157-9.623 6.986-37.3 36.64-54.576 55.15-14.677 15.726-23.105 24.708-25.655 26.469-4.885 3.375-40.125 5.993-41.623 6.103-17.156 1.259-38.501 2.082-42.764-1.132-4.376-3.299-6.26-16.445-8.443-34.656-.286-2.387-.589-4.913-.882-7.088-1.991 4.494-4.745 11.162-7.288 17.317-7.803 18.888-13.558 32.545-16.559 36.274-5.395 6.704-33.087 30.62-39.521 31.836-2.24.422-9.379.438-22.864.411-16.165-.022-48.066-.072-57.134 2.056z" fill="#2043b7"/></svg>