<svg xmlns="http://www.w3.org/2000/svg" viewBox="0 0 1500 1500" width="1500" height="1500"><g transform="translate(171.0 415.0) rotate(0.0 477.0 412.5) scale(0.9645531763019193 0.9635081506950106)"><svg width="989.059" height="856.246" viewBox="0 0 989.059 856.246"><g fill="#1e1e1e"><path d="M824.546 6.165C788.558-15.9 29.759 67.731 10.4 96.13s-.7 627.379 29.8 656.401c11.049 10.513 173.4-6.281 324.368-18.448 8.2 20.383 7.765 37.512 9.188 57.865-64.135-4.644-115.012-6.237-121.414-1.059-18.375 14.862-.315 62.857-.315 62.857h416.426s-4.72-31.823-17.85-40.576c-4.683-3.122-41.224-10.333-106.957-17.647 10.426-31.37 28.05-44.3 55.551-79.915 199.537-22.845 381.124-38.483 386.606-60.595 12.135-48.948-125.27-626.78-161.257-648.848z"/><path d="M668.453 856.246H252.031a2.5 2.5 0 0 1-2.339-1.62c-.764-2.028-18.472-49.866 1.082-65.681 2.34-1.893 9.421-7.62 120.3.3-.151-2.388-.283-4.734-.412-7.024-.893-15.844-1.669-29.6-7.741-45.5-30 2.424-60.49 5.031-89.995 7.553-143.586 12.277-225.27 18.8-234.446 10.065C17.109 734.007 6.093 475.756 4.1 424.193-1.769 272.158-2.2 110.168 8.33 94.721c1.852-2.715 7.487-10.98 132-30.2C212.302 53.41 308.414 41.058 410.96 29.74 554.749 13.868 803.94-9.4 825.853 4.033c25.607 15.7 87.624 265.891 99.8 315.885 35.9 147.451 68.924 310.108 62.581 335.7-1.716 6.92-13.618 15.549-88.881 27.082-51.87 7.948-121.177 15.577-201.428 24.411-31.56 3.475-64.182 7.066-97.393 10.865-7.782 10.037-14.794 18.3-21 25.609-14.557 17.15-25.259 29.759-32.5 49.8 64.8 7.306 99.812 14.274 104.957 17.7 13.894 9.263 18.737 40.945 18.936 42.289a2.5 2.5 0 0 1-2.472 2.867zm-414.656-5h411.679c-1.491-7.831-6.407-29.428-16.26-36-3.211-2.141-33.308-9.172-105.846-17.243a2.5 2.5 0 0 1-2.1-3.273c7.544-22.7 18.827-35.99 34.443-54.389 6.342-7.471 13.53-15.94 21.5-26.264a2.5 2.5 0 0 1 1.7-.956c33.582-3.845 66.565-7.476 98.462-10.987 80.194-8.828 149.452-16.452 201.217-24.385 27.446-4.205 47.629-8.154 61.7-12.072 19.67-5.476 22.7-9.706 23.083-11.27 5.428-21.893-20.893-162.071-62.585-333.31C877.484 143.226 838.28 17.52 823.238 8.3 808-1.051 634.844 10.059 411.511 34.707 309.034 46.017 213 58.359 141.1 69.46 27.549 86.989 13.931 95.383 12.461 97.538 3.986 109.968 2.509 253.367 9.1 424c7.085 183.48 20.278 314.778 32.829 326.72 1.911 1.819 13.959 4.353 73.172.892 42.153-2.463 98.134-7.249 157.4-12.316 30.118-2.575 61.261-5.238 91.87-7.705a2.506 2.506 0 0 1 2.52 1.559c6.994 17.393 7.854 32.646 8.764 48.794.179 3.186.365 6.48.6 9.83a2.5 2.5 0 0 1-2.675 2.668c-103.6-7.5-117.783-3.128-119.661-1.609-14.982 12.117-2.986 50.091-.119 58.413z"/></g></svg></g><g transform="translate(952.0 1132.0) rotate(0.0 135.5 54.0) scale(0.865814696485623 0.8622616804522084)"><svg width="313" height="125.252" viewBox="0 0 313 125.252"><g fill="#1e1e1e"><path d="M267.628 11.569C221.779-11.156 155.464 13.2 107.175 36.648c-9.666-4.665-27.039-10.373-41.73-.82C47.638 47.408 44.134 61.082 47.1 70.776 29.61 83.645 14.447 98.4 4.956 109.989c-4.337 5.3-2.173 9.978.692 12.763h285.728a123.791 123.791 0 0 0 14.277-27.343c10.452-29.009 6.647-61.7-38.025-83.84z"/><path d="M291.375 125.252H5.648a2.5 2.5 0 0 1-1.742-.707c-3.8-3.69-6.023-9.867-.884-16.14C13.431 95.7 28.759 81.345 44.258 69.77c-1.394-6.47-1.824-21.959 19.824-36.037 15.282-9.939 33.129-4.452 43.079.144 30.324-14.649 56.708-24.311 80.623-29.525C220.463-2.773 247.7-1.1 268.739 9.329c49.5 24.534 48.674 60.813 39.266 86.928a125.587 125.587 0 0 1-14.564 27.9 2.5 2.5 0 0 1-2.066 1.095zm-284.653-5h283.325a119.507 119.507 0 0 0 13.253-25.69c8.719-24.2 9.415-57.856-36.783-80.753-34.993-17.345-88.236-8.904-158.25 25.091a2.5 2.5 0 0 1-2.178 0c-8.743-4.218-25.472-9.956-39.282-.975-14.174 9.218-20.649 21.226-17.319 32.121a2.5 2.5 0 0 1-.909 2.744C32.939 84.3 17.354 98.8 6.89 111.573c-2.479 3.027-2.534 5.942-.168 8.679z"/></g></svg></g><g transform="translate(216.0 338.0) rotate(0.0 519.0 451.0) scale(1.0011110596731634 1.0004048201323152)"><svg width="1036.848" height="901.635" viewBox="0 0 1036.848 901.635"><path d="M308.381 710.284c33.817 54.582 53.657 109.1 42.666 163.492H527.4c11.739-64.279 66.383-142.694 150.751-222.627z" fill="#3054e5"/><path d="M527.4 876.276H351.046a2.5 2.5 0 0 1-2.45-3c9.7-48.018-3.75-99.393-42.34-161.68a2.5 2.5 0 0 1 1.73-3.785l369.768-59.131a2.5 2.5 0 0 1 2.114 4.284c-86.705 82.148-138.578 158.659-150.011 221.261a2.5 2.5 0 0 1-2.457 2.051zm-173.326-5h171.252c6.15-31.434 22.341-66.53 48.146-104.352 24.489-35.892 57.149-73.557 97.143-112.038l-358.146 57.276c37.015 60.738 50.285 111.473 41.603 159.114z" fill="#3054e5"/><path d="M332.342 754.418c4.489 8.045 12.951 32.113 15.47 41.808 51.632-10.531 165.679-16.373 218.132-13.247 9.262-15.357 25.23-36.777 36.846-51.15z" fill="#2043b7"/><path d="M347.81 798.726a2.5 2.5 0 0 1-2.417-1.871c-2.486-9.567-10.952-33.545-15.234-41.219a2.5 2.5 0 0 1 1.975-3.71l270.448-22.589a2.5 2.5 0 0 1 2.152 4.063c-11.709 14.488-27.582 35.836-36.649 50.87a2.507 2.507 0 0 1-2.29 1.2c-51.621-3.078-166.355 2.773-217.483 13.2a2.458 2.458 0 0 1-.502.056zM336.236 756.6c4.344 9.32 10.611 27.049 13.372 36.717 53.275-10.383 162.7-15.81 214.98-12.921 8.348-13.6 21.675-31.742 32.625-45.594z" fill="#2043b7"/><path d="M41.8 774.031C9.912 743.693-9.46 136.912 10.781 107.227S766.813-16.979 804.431 6.09s205.882 607.777 193.2 658.943S73.681 804.369 41.8 774.031z" fill="#3054e5"/><path d="M102.627 782.744c-55.313 0-60.509-4.956-62.554-6.9C17.759 754.611 6.312 492.759 4.244 440.483c-6.1-154.106-6.519-318.545 4.472-334.664 1.927-2.827 7.791-11.428 128.892-32.625 70.25-12.3 163.71-26.075 263.165-38.8 99.792-12.767 194.41-23.031 266.423-28.9 82.609-6.735 129.22-7.252 138.542-1.535 21.056 12.911 75.948 180.649 116.556 320.368 42.205 145.212 84.542 313.957 77.761 341.307-1.067 4.3-6.366 11.157-39.917 20.936-94.689 27.6-336.219 57.21-514.28 74.181-103.97 9.909-201.021 17.087-273.273 20.211-29.458 1.274-52.275 1.782-69.958 1.782zM43.52 772.22c2.817 2.68 21.012 8.411 128.849 3.747 72.169-3.121 169.127-10.293 273.014-20.194 177.844-16.95 419-46.5 513.356-74 31.291-9.121 35.924-15.164 36.463-17.339 5.531-22.308-27.151-164.756-77.71-338.709C865.98 148.487 818.95 17.925 803.124 8.221c-16.09-9.868-181.283 2.935-401.717 31.134-99.381 12.714-192.76 26.481-262.938 38.764C31.047 96.922 14.832 105.724 12.847 108.635c-8.866 13-10.45 158.681-3.607 331.651C16.6 626.319 30.376 759.714 43.52 772.22z" fill="#3054e5"/><circle cx="411.105" cy="64.986" fill="#1e1e1e" r="10.244"/><path d="M411.084 77.731a12.772 12.772 0 1 1 1.053-.043c-.352.028-.704.043-1.053.043zm.034-20.49q-.32 0-.64.026a7.744 7.744 0 1 0 8.345 7.091 7.744 7.744 0 0 0-7.7-7.117z" fill="#1e1e1e"/><path d="M58.406 690.629C31.6 675.883 8.168 183.245 28.2 158.009S748.81 38.275 782.231 56.82 979.56 551.434 950.779 586.972C930.618 611.865 97.11 711.916 58.406 690.629z" fill="#f6f6f6"/><path d="M90.407 696.035c-17.541 0-29.17-1-33.2-3.216-2.875-1.581-6.8-6.509-11.685-30.788-10.05-49.942-19.722-161.684-24.638-284.676-1.361-34.045-7.5-204.7 5.36-220.9 1.907-2.4 7.712-9.714 123.1-29.973 66.915-11.749 155.887-25.231 250.524-37.962 132.919-17.884 363.289-45.145 383.576-33.886 15.635 8.676 53.757 103.114 84.22 188.6s68.295 204.039 83.116 280.384c7.094 36.543 7.728 57.78 1.941 64.926-1.929 2.382-7.8 9.632-144.058 30.59-79.882 12.286-185.3 26.3-296.824 39.466-159.422 18.818-345.601 37.433-421.432 37.435zM759.528 56.91c-52.188 0-190.048 13.835-359 36.564-94.572 12.726-183.473 26.194-250.328 37.931-102.448 17.989-118.076 25.684-120.04 28.158-1.712 2.156-5.8 13.4-6.767 71.122-.643 38.271.24 90.288 2.487 146.47 4.909 122.751 14.541 234.184 24.539 283.89 4.688 23.305 8.221 26.859 9.192 27.394 16.311 8.97 202.032-5.342 451.642-34.8 111.472-13.157 216.824-27.165 296.65-39.442 124.66-19.174 139.388-26.887 140.933-28.794 2.664-3.291 5.821-15.567-2.965-60.827C931.1 448.5 893.356 330.23 862.954 244.913 825.642 140.207 792.715 65.5 781.018 59.006c-2.551-1.416-9.918-2.096-21.49-2.096z" fill="#f6f6f6"/><g fill="#668bff"><path d="M71.386 683.241a153.916 153.916 0 0 1-20.086-7.486c2.281 8.329 4.671 13.5 7.1 14.874C97.637 712.8 930.2 612.9 950.778 586.972c2.712-3.416 4.121-10.141 3.253-21.235a90.38 90.38 0 0 1-15.682 11.819C881.787 611.824 136.215 702.44 71.386 683.241z"/><path d="M92.5 696.277c-18.676 0-31.073-1.072-35.32-3.471-1.928-1.09-4.884-3.975-8.284-16.391a2.5 2.5 0 0 1 3.456-2.931 152.169 152.169 0 0 0 19.748 7.36c33.126 9.809 249.006-10.166 435.57-32.877 228.154-27.774 404.726-57.608 429.388-72.549a87.524 87.524 0 0 0 15.252-11.491 2.5 2.5 0 0 1 4.217 1.616c.861 11-.413 18.733-3.787 22.983-1.965 2.477-7.948 10.015-144.172 31.169-79.813 12.394-185.177 26.466-296.685 39.625C353.957 677.956 169.68 696.275 92.5 696.277zM55.265 680.2c2.228 6.553 3.856 7.958 4.371 8.25 16.548 9.352 202.278-4.67 451.658-34.1 111.448-13.151 216.749-27.215 296.5-39.6C932.4 595.4 947.241 587.407 948.82 585.418c1.488-1.874 3.075-5.859 2.964-14.326a97.424 97.424 0 0 1-12.139 8.6c-29.571 17.915-237.964 49.692-431.375 73.236-193.322 23.534-403.6 42.775-437.594 32.708a161.708 161.708 0 0 1-15.411-5.436zM790.151 21.634c13.614 3.98 51.159 72.55 70.313 113.485-23.117-68.152-44.977-122.25-56.033-129.029-24.178-14.827-354.686 20.391-572.05 54.266 166.025-11.317 496.136-56.737 557.77-38.722z"/><path d="M860.465 137.619a2.5 2.5 0 0 1-2.265-1.441c-20.835-44.527-57.069-108.73-68.75-112.144-41.134-12.024-209.35 5.157-357.764 20.314-74.633 7.621-145.127 14.821-199.135 18.5a2.5 2.5 0 0 1-.551-4.962C339.257 41.17 476.668 23.768 590.6 12.472c73.628-7.3 199.481-18.113 215.134-8.513C819.175 12.2 844.2 79.4 862.832 134.316a2.5 2.5 0 0 1-2.367 3.3zM790.852 19.235c11.555 3.377 35.554 43.839 54.165 79.293-19.284-53.273-34.2-85.591-41.893-90.307C792.758 1.863 713.5 5.312 591.1 17.448c-88.043 8.729-190.107 21.1-281.421 33.992 37.608-3.5 78.88-7.714 121.5-12.066C587.323 23.427 748.784 6.937 790.852 19.235z"/></g><path d="M881.56 290.824 692.147 57.86q-9.06.716-18.808 1.566L894.9 331.008a3275.472 3275.472 0 0 0-13.34-40.184z" fill="#fff"/><path d="M894.9 333.508a2.5 2.5 0 0 1-1.938-.92L671.4 61.006a2.5 2.5 0 0 1 1.72-4.071c6.474-.564 12.809-1.092 18.827-1.568a2.5 2.5 0 0 1 2.138.915L883.5 289.247a2.487 2.487 0 0 1 .428.774c4.534 13.366 9.026 26.9 13.352 40.214a2.5 2.5 0 0 1-2.377 3.273zm-216.637-272 210.088 257.516a3253.632 3253.632 0 0 0-9.014-26.972l-188.3-231.6c-4.137.333-8.411.686-12.771 1.058zm234.001 324.727L646.613 61.877c-18.941 1.817-39.268 3.921-60.6 6.258l351.815 409.447c-6.938-27.717-15.71-58.862-25.564-91.347z" fill="#fff"/><path d="M937.829 480.082a2.5 2.5 0 0 1-1.9-.87L584.12 69.765a2.5 2.5 0 0 1 1.624-4.115c21.585-2.366 41.984-4.472 60.63-6.261a2.517 2.517 0 0 1 2.173.9L914.2 384.651a2.491 2.491 0 0 1 .459.858c10.255 33.808 18.867 64.582 25.6 91.466a2.5 2.5 0 0 1-2.424 3.107zM591.005 70.106l341.77 397.76c-6.241-24.14-13.88-51.137-22.759-80.431L645.524 64.494a4468.678 4468.678 0 0 0-54.519 5.612z" fill="#fff"/><path d="M226.753 830.509c19.209-15.536 421.41 27.238 435.135 36.388s16.261 32.238 16.261 32.238h-451.4s-19.205-53.09.004-68.626z" fill="#3054e5"/><path d="M678.149 901.635h-451.4a2.5 2.5 0 0 1-2.351-1.65c-.809-2.236-19.581-54.953.779-71.42 2.037-1.647 7.449-6.024 75.857-2.708 47.747 2.313 105.518 7.313 145.574 11.1 98 9.264 208.7 22.55 216.663 27.859 14.529 9.687 17.25 33.056 17.359 34.046a2.5 2.5 0 0 1-2.485 2.773zm-449.609-5h446.685c-1.144-6.186-4.843-21.071-14.723-27.658-5.96-3.768-99.051-16.149-214.71-27.076-39.955-3.774-97.566-8.756-145.132-11.057-59.909-2.9-70.543.16-72.335 1.609-15.806 12.784-2.754 55.259.215 64.182z" fill="#3054e5"/><path d="M241.436 842.055c19.205-8.091 322.253 22 393.925 19.268-71.869-12.25-389.135-45.162-408.608-30.814-9.224 6.8-9.552 22.486-7.683 36.8 4.581-10.136 11.743-20.78 22.366-25.254z" fill="#668bff"/><path d="M219.071 869.813a2.538 2.538 0 0 1-.367-.027 2.5 2.5 0 0 1-2.113-2.149c-2.588-19.821.332-32.99 8.679-39.141 3.23-2.381 13.33-5.328 63.53-3.447 30.963 1.161 73.436 4.066 122.827 8.4 85.387 7.5 185.942 18.894 224.154 25.408a2.5 2.5 0 0 1-.324 4.962c-34.264 1.307-120.757-4.831-204.4-10.763-88.069-6.247-179.136-12.705-188.648-8.7-10.435 4.4-17.211 15.469-21.057 23.984a2.5 2.5 0 0 1-2.281 1.473zm42.229-40.347c-25.49 0-31.626 1.993-33.068 3.056-5.643 4.158-8.146 12.9-7.472 26.051 5.469-9.294 12.073-15.61 19.7-18.822 9.9-4.169 78.74.361 190.942 8.319 61.315 4.349 124.166 8.807 166.7 10.357-48.283-6.339-121.974-14.294-186.914-20-79.283-6.956-124.318-8.961-149.888-8.961z" fill="#668bff"/></svg></g><g transform="translate(978.0 1101.0) rotate(0.0 192.5 69.5) scale(1.0021109401882926 0.9953526341040753)"><svg width="384.189" height="139.649" viewBox="0 0 384.189 139.649"><path d="M59.962 89.884C48.672 81.6 44.543 58.316 72.988 39.818c24.255-15.774 55.064 5.612 55.064 5.612" fill="#3054e5"/><path d="M59.96 92.384a2.491 2.491 0 0 1-1.477-.485C52.24 87.318 48.655 79.516 48.9 71.03c.2-7.048 3.416-20.748 22.73-33.308 25.37-16.5 56.538 4.742 57.853 5.654a2.5 2.5 0 0 1-2.851 4.108c-.3-.2-29.737-20.227-52.276-5.571C61.454 50.3 54.188 60.691 53.892 71.171c-.19 6.743 2.7 13.141 7.549 16.7a2.5 2.5 0 0 1-1.481 4.516z" fill="#3054e5"/><path d="M6.034 137.145c-3.209-3.117-5.632-8.361-.776-14.29 15.208-18.566 43.414-44.407 73.654-60.9 50-27.282 154.278-82.1 220.46-49.3 50.018 24.79 54.28 61.392 42.576 93.876a138.548 138.548 0 0 1-15.986 30.615z" fill="#aef45d"/><path d="M325.962 139.645H6.034a2.5 2.5 0 0 1-1.743-.707c-4.155-4.038-6.591-10.8-.967-17.667 14.3-17.455 42.359-44.039 74.391-61.516 19.953-10.887 61.474-33.54 104.6-47.365 49.216-15.781 88.975-16.445 118.168-1.976 55.227 27.373 54.311 67.838 43.817 96.964a140.24 140.24 0 0 1-16.272 31.176 2.5 2.5 0 0 1-2.066 1.091zm-318.859-5h317.532a134.215 134.215 0 0 0 14.965-28.962c9.805-27.212 10.592-65.053-41.334-90.789-67.007-33.212-176.815 26.7-218.153 49.25-31.4 17.132-58.9 43.188-72.917 60.295-3.534 4.31-2.176 7.834-.096 10.206z" fill="#aef45d"/><g fill="#3054e5"><path d="M342.019 106.556c-1.551 5.005-10.511 24.071-16.059 30.593H6.036c-3.43-3.34-5.451-8.238-.883-14a2.157 2.157 0 0 1 .114-.286c127.777-18.828 221.607-79.425 279.483-67.977 38.021 7.521 52.705 38.208 57.269 51.67z"/><path d="M325.959 139.649H6.036a2.5 2.5 0 0 1-1.744-.709c-5.232-5.095-5.709-11.289-1.335-17.04.025-.053.05-.107.077-.16a2.5 2.5 0 0 1 1.866-1.355c60.2-8.867 112.069-26.778 157.836-42.585 51.027-17.619 91.329-31.535 122.5-25.37 39.738 7.86 54.6 39.906 59.151 53.319a2.5 2.5 0 0 1 .02 1.543c-1.6 5.182-10.713 24.62-16.544 31.473a2.5 2.5 0 0 1-1.904.884zm-318.857-5h317.661c4.968-6.486 12.646-22.532 14.616-28.08-4.572-13.014-18.691-42.025-55.114-49.23-29.843-5.9-69.584 7.818-119.9 25.191-45.69 15.776-97.435 33.644-157.611 42.635-2.438 3.357-2.326 6.472.346 9.484z"/><path d="M140.031 90.246a2.5 2.5 0 0 1-2.091-3.866c6.707-10.273 12.827-25.671 3.894-40.689a2.5 2.5 0 1 1 4.3-2.556c8.114 13.64 6.729 29.539-4 45.978a2.5 2.5 0 0 1-2.103 1.133z"/></g><path d="M299.372 12.654c-32.38-16.049-73.879-11.119-113.679 1.293 31.411-4.791 77.941-7.8 103.192.731 25.984 8.779 34.1 16.24 48.847 29.735-7.476-11.675-19.749-22.535-38.36-31.759z" fill="#d4ff9c"/><path d="M337.731 46.913a2.5 2.5 0 0 1-1.688-.656l-.08-.073c-14.469-13.246-22.441-20.543-47.878-29.138-24.363-8.232-70.182-5.483-102.015-.627a2.5 2.5 0 0 1-1.121-4.858c48-14.969 86.869-15.355 115.534-1.147 17.93 8.887 31.171 19.872 39.354 32.651a2.5 2.5 0 0 1-2.106 3.848zM244.125 6.741c17.45 0 33.719 1.567 45.561 5.568 4.926 1.665 9.22 3.281 13.044 4.9q-2.18-1.179-4.468-2.313C278.505 5.1 253.5 2.6 223.635 7.389c6.881-.416 13.772-.648 20.49-.648z" fill="#d4ff9c"/></svg></g><g transform="translate(283.0 509.0) rotate(0.0 370.0 216.5) scale(0.998659906368886 0.9984274191688841)"><svg width="740.993" height="433.682" viewBox="0 0 740.993 433.682"><path d="M4.289 94.986c3.753-6.421 395.251-71.181 399.289-69.269s2.409 32.563 0 37.845S12.034 129.28 7.613 126.285C3.192 123.29.536 101.407 4.289 94.986z" fill="#ffa9d8"/><path d="M8.699 128.826c-1.794 0-2.138-.233-2.489-.471-5.698-3.861-8.444-27.163-4.081-34.63.927-1.586 1.885-3.226 65.105-14.997 43.789-8.154 98.221-17.533 136.173-23.966 48.186-8.167 97.834-16.332 136.214-22.4 62.848-9.938 64.002-9.386 65.025-8.904 1.279.605 4.274 2.024 3.847 19.979-.186 7.81-1.092 17.765-2.643 21.163-.553 1.212-1.69 1.702-4.199 2.406-18.403 5.166-123.63 22.386-208.149 35.562-48.099 7.498-93.229 14.283-127.079 19.105-40.837 5.817-53.433 7.153-57.726 7.153zm-.021-4.921h.094c9.264 0 94.124-12.185 196.528-28.244 107.956-16.93 187.572-30.666 196.266-33.839 1.88-5.938 2.809-29.031.845-33.623-10.67.703-102.203 15.232-197.47 31.374C91.138 78.857 13.703 93.33 6.206 96.706c-2.874 6.082-.199 24.092 2.472 27.198zM6.447 96.249l-.005.009z" fill="#ffa9d8"/><path d="M439.279 21.92c-2.737 3.725-.629 33.566 2.724 35.82S567.69 42.09 571.471 39.169s4.815-34.681 0-36.532C566.656.786 442.016 18.195 439.279 21.92z" fill="#aef45d"/><path d="M444.045 60.335c-2.661 0-3.119-.307-3.437-.521-1.159-.779-2.389-2.402-3.53-8.945-1.443-8.277-2.686-26.521.186-30.43.766-1.043 1.561-2.122 22.715-5.827 11.524-2.019 27.244-4.469 44.262-6.9 10.64-1.52 63.93-9.016 68.126-7.409 2.172.836 3.47 3.455 4.208 8.495 1.155 7.89.994 28.818-3.576 32.35-3.095 2.391-47.232 8.993-66.065 11.722-42.494 6.155-57.393 7.466-62.89 7.466zm-.682-4.891c10.747.435 118.228-15.063 126.588-18.309 2.712-3.941 3.073-28.469.502-32.135-4.088-.25-28.753 2.423-64.782 7.559-37.912 5.402-60.703 9.61-64.5 11.134-1.67 4.426-.068 27.37 2.192 31.751z" fill="#aef45d"/><path d="M24.625 250.016c3.752-3.208 160.873-30.621 164.831-27.81s3.564 40.187 0 43.349S31.661 286.721 27.568 284.12c-4.093-2.601-6.696-30.896-2.943-34.104z" fill="#ffa9d8"/><path d="M30.487 286.869c-3.256 0-3.772-.329-4.259-.639-4.134-2.628-5.408-16.304-5.7-20.433-.688-9.741.144-15.689 2.473-17.682 3.254-2.781 64.765-13.505 83.54-16.726 21.38-3.667 41.147-6.846 55.659-8.949 26.494-3.842 27.568-3.08 28.704-2.272.967.688 2.979 2.117 3.673 14.922.319 5.897.668 28.671-3.461 32.336-.818.726-1.835 1.628-27.538 5.207-14.69 2.045-34.074 4.478-54.58 6.85-20.778 2.404-40.198 4.452-54.683 5.769-13.505 1.228-20.287 1.617-23.829 1.617zm-1.693-5.024c10.836 1.099 148.473-14.719 159.034-18.285 2.457-4.689 2.592-34.013.231-39.066-4.97-.122-31.708 3.418-81.271 11.929-45.911 7.883-76.524 14.02-80.57 15.586-2.135 3.674-.167 26.211 2.577 29.837z" fill="#ffa9d8"/><path d="M27.291 321.113c3.29-3.503 246.249-43.259 249.636-39.998s5.314 27.66 2.375 31.552c-2.939 3.891-247.53 40.889-252.011 38.793-4.481-2.095-3.29-26.844 0-30.347z" fill="#aef45d"/><path d="M28.19 354.015c-1.339 0-1.659-.15-1.958-.29-1.816-.85-2.984-2.922-3.675-6.523-1.48-7.714-.619-24.038 2.912-27.799.829-.884 1.686-1.796 38.043-8.352 21.08-3.8 49.289-8.603 79.431-13.521 52.721-8.604 118.895-18.769 131.885-19.096 1.892-.049 2.998.076 3.833.881 4.388 4.225 6.334 29.962 2.636 34.859-.876 1.16-1.634 2.163-41.562 8.956-22.279 3.79-52.638 8.638-85.483 13.65-31.569 4.817-62.83 9.384-85.768 12.526-28.155 3.858-37.108 4.708-40.294 4.708zm.123-4.953c15.25.27 235.749-33.589 249.196-38.283 1.673-3.976.251-23.229-1.987-27.37-7.39-.143-57.317 6.988-123.701 17.743-63.81 10.337-117.01 19.843-122.902 21.943-2.351 3.758-2.794 22.782-.606 25.967z" fill="#aef45d"/><path d="M316.824 272.763c3.335-4.004 145.172-25.782 147.54-21.102 2.368 4.681 1.725 33.77 0 37.086s-140.115 19.276-144.594 15.575-6.281-27.555-2.946-31.559z" fill="#ffa9d8"/><path d="M325.81 307.313c-6.346 0-7.14-.656-7.633-1.064-3.473-2.869-4.781-11.763-5.251-16.809-.313-3.355-1.094-14.59 1.977-18.277.761-.915 1.709-2.053 23.357-6.09 12.462-2.324 28.931-5.059 46.373-7.698 32.185-4.872 69.691-9.715 78.41-8.736.824.094 2.752.313 3.552 1.895 2.702 5.341 2.179 35.154-.013 39.368-.666 1.279-1.903 1.794-6.617 2.751-11.846 2.404-44.609 6.706-77.903 10.228-32.916 3.481-48.61 4.434-56.251 4.434zm-4.668-5.128c3.701.787 27.202-.559 71.174-5.447 38.149-4.242 65.121-8.241 70.024-9.767 1.19-4.933 1.557-27.864.074-33.395-4.961-.613-28.847 1.565-72.22 8.019-39.903 5.938-67.788 11.289-71.604 13-1.961 3.487-.75 24.025 2.553 27.59z" fill="#ffa9d8"/><path d="M30.581 393.578c2.664-3.655 342.97-54.415 346.297-50.879 3.327 3.535 4.115 33.303 0 37.768S34.243 433.883 30.581 431.066c-3.662-2.817-2.664-33.833 0-37.487z" fill="#ffd04d"/><path d="M31.881 433.611c-2.091 0-2.445-.272-2.825-.564-.892-.686-3.605-2.772-3.348-20.447.042-2.825.372-17.092 2.852-20.494.871-1.194 1.5-2.057 50.717-10.065 28.453-4.63 66.988-10.593 108.505-16.791 77.753-11.608 165.079-23.877 184.895-25.12 3.816-.239 5.068-.154 6.021.856 4.162 4.423 5.148 35.609.018 41.176-.957 1.038-2.041 2.214-56.774 10.96-30.963 4.948-72.878 11.287-118.023 17.85-44.396 6.454-86.28 12.308-117.936 16.483-37.297 4.92-49.644 6.157-54.102 6.157zm.084-4.908h.043c21.397 0 328.632-44.895 343.248-50.212 2.777-4.232 2.194-28.438.11-33.484h-.083c-21.028 0-324.525 44.669-342.891 50.504-1.795 4.719-2.579 28.274-.426 33.193z" fill="#ffd04d"/><g fill="#aef45d"><path d="M428.646 335.278c3.651-3.247 305.147-53.904 308.018-50.8 2.871 3.103 1.966 40.757 0 44.628s-304.6 50.849-308.018 46.896-3.651-37.477 0-40.723z"/><path d="M430.719 378.717c-3.031 0-3.442-.477-3.965-1.08-2.89-3.343-3.243-16.677-3.26-22.255-.027-8.584.557-19.364 3.49-21.973.817-.728 1.835-1.632 50.485-10.337 28.236-5.052 66.531-11.628 105.067-18.042 40.516-6.745 77.78-12.729 104.926-16.854 49.128-7.462 49.764-6.771 51.036-5.398.741.801 2.708 2.928 2.479 23.752-.022 2.051-.273 20.14-2.085 23.707-.764 1.503-1.147 2.258-36.229 8.42-20.251 3.558-47.825 8.108-79.74 13.162-55.761 8.83-129.425 19.864-168.294 24.611-13.824 1.688-20.513 2.286-23.91 2.286zm-.503-4.961c8.7.244 70.394-8.101 152.792-20.77 78.254-12.031 143.363-23.077 151.641-25.696 1.404-5.756 1.996-34.231.347-40.453-9.561.328-70.853 9.67-152.693 23.301-79.45 13.232-145.208 24.992-152.073 27.181-2.385 4.395-2.329 30.904-.013 36.438zM14.673 170.93c2.32-3.23 221.486-33.642 225.384-30.548s3.624 32.258 0 35.227c-3.624 2.97-217.265 35.165-222.069 32.71-4.803-2.455-5.635-34.159-3.315-37.389z"/><path d="M19.373 210.932c-1.767 0-2.159-.201-2.521-.387-1.756-.897-2.968-3.066-3.929-7.032-2.115-8.728-3.021-30.221-.279-34.041.825-1.149 1.371-1.909 32.314-6.803 17.676-2.795 41.803-6.343 67.937-9.989 31.293-4.365 62.291-8.427 85.043-11.143 41.375-4.938 42.492-4.053 43.674-3.113 3.011 2.39 3.709 11.303 3.764 18.358.042 5.288-.24 17.897-3.734 20.761-.809.663-1.815 1.487-36.729 7.242-20.126 3.317-47.492 7.577-75.079 11.687-28.881 4.302-55.625 8.091-75.305 10.669-23.239 3.044-31.75 3.791-35.156 3.791zm-.315-4.971c5.984.295 50.669-5.59 110.185-14.457 56.532-8.422 103.775-16.191 109.291-17.959 2.338-3.837 2.408-26.682.151-30.89-6.703-.37-51.772 4.906-111.542 13.102-56.445 7.74-103.818 15.064-110.575 17.072-1.541 5.245-.323 29.537 2.491 33.132z"/></g><path d="M273.398 133.735c3.153-4.228 253.787-37.466 257.224-34.701s3.01 31.42 0 36.077-244.966 36.144-249.877 33.359-10.5-30.506-7.347-34.734z" fill="#ffd04d"/><path d="M282.747 171.123c-2.391 0-2.831-.25-3.235-.479-3.977-2.255-6.629-12.386-7.856-18.224-1.012-4.816-3.063-16.423-.262-20.18.931-1.249 1.99-2.665 60.787-11.28 32.603-4.776 74.99-10.541 113.387-15.418 23.956-3.043 44.411-5.493 59.156-7.086 25.715-2.776 26.375-2.247 27.465-1.371 2.296 1.847 3.423 8.338 3.351 19.294-.018 2.653-.236 16.094-2.818 20.089-.859 1.329-1.671 2.585-41.342 8.682-22.061 3.391-52.126 7.62-84.656 11.909-31.259 4.121-62.242 7.953-85.007 10.512-25.083 2.82-34.879 3.552-38.969 3.553zm-.963-4.989c6.166.498 59.792-5.535 123.697-13.955 67.021-8.829 117.066-16.5 123.279-18.875 2.159-4.846 2.447-27.332.435-31.956-17.369-.464-239.814 29.464-253.936 34.244-.521 1.749-.469 7.378 1.266 15.685 1.787 8.56 4.095 13.716 5.259 14.857z" fill="#ffd04d"/></svg></g><g transform="translate(903.0 244.0) rotate(-11.962642145152449 143.5 160.0) scale(0.5668027388224327 0.5668803687556798)"><svg width="506.349" height="564.493" viewBox="0 0 506.349 564.493"><path d="M91.656 9.148c38.487-39.821 396.917 111.026 409.42 140.81 15.142 36.071-34.394 373.754-84.28 408.596C381.536 583.18 16.879 468.933 4.07 427.516-8.739 386.098 60.103 41.795 91.656 9.148z" fill="#ffa9d8"/><path d="M397.949 564.504c-16.786 0-42.42-3.829-76.682-11.471-47.163-10.52-105.936-27.44-161.25-46.423-35.194-12.078-150.624-53.425-158.335-78.357-6.952-22.478 8.6-123.532 27.096-213.713C46.065 130.258 72.435 25.438 89.859 7.411c8.383-8.673 29.2-9.748 63.639-3.288C264.65 24.977 492.594 123.292 503.382 148.99c8.496 20.237-2.277 120.717-17.599 206.167-9.754 54.397-35.863 183.311-67.555 205.445-3.726 2.602-10.503 3.901-20.279 3.901zM116.682 4.994c-13.801 0-20.269 2.829-23.229 5.892-13.515 13.983-37.538 96.229-59.778 204.659C11.949 321.477.756 408.339 6.459 426.776c4.592 14.848 65.505 44.328 155.182 75.104 101.609 34.87 197.121 57.667 236.728 57.67 8.231 0 14.041-.983 16.996-3.048 20.927-14.615 45.411-90.215 65.497-202.229 17.044-95.051 25.078-186.273 17.91-203.349-3.71-8.838-50.844-36.117-133.752-71.154-82.275-34.768-161.693-61.211-212.444-70.733-15.53-2.913-27.176-4.043-35.894-4.043z" fill="#ffa9d8"/><g fill="#3054e5"><path d="M199.414 167.31c8.704.622 11.399 11.94 10.869 19.358-.53 7.417-84.406 61.374-88.16 69.718s26.434 67.429 26.51 78.264-10.958 25.24-20.068 24.589c-9.111-.651-45.889-102.741-41.904-112.713s104.05-79.838 112.754-79.216z"/><path d="M129.149 361.759c-.256 0-.51-.009-.762-.027-2.13-.151-4.21-2.087-6.957-6.472-11.992-19.142-41.407-98.862-37.09-109.662 3.078-7.701 46.768-38.587 55.495-44.7 12.261-8.589 52.783-36.553 59.759-36.081 4.792.342 8.701 3.4 11.005 8.612 1.691 3.825 2.506 8.841 2.179 13.416-.313 4.381-11.544 13.114-47.453 38.913-17.514 12.583-39.312 28.243-40.921 31.654-1.63 3.769 8.434 28.002 14.446 42.48 6.572 15.825 12.248 29.492 12.285 34.739.05 7.109-4.089 15.797-10.299 21.62-3.811 3.573-7.929 5.507-11.686 5.507zm-.223-5.004c2.508.108 5.519-1.366 8.489-4.15 5.174-4.851 8.759-12.228 8.719-17.938-.03-4.268-6.065-18.802-11.902-32.856-10.538-25.376-16.765-41.166-14.388-46.451 1.847-4.106 15.024-13.877 42.563-33.662 18.373-13.2 43.486-31.242 45.395-35.391.238-3.748-.423-7.793-1.777-10.855-1.555-3.519-3.823-5.417-6.74-5.645-3.553.27-25.906 13.661-57.285 35.679-32.717 22.956-51.734 38.756-53.018 41.968-1.271 3.303 4.172 25.324 15.481 56.457 11.647 32.064 21.241 51.045 24.463 52.845zm193.135-186.967c10.044-3.072 28.832 14.029 31.513 24.749S202.827 409.501 193.972 415.051s-33.279-2.027-37.409-12.3S312.017 172.86 322.06 169.788z"/><path d="M185.734 419.417c-4.422 0-9.176-.957-13.162-2.253-9.299-3.023-16.151-8.063-18.329-13.48-.537-1.335-.419-3.104 1.821-7.792 9.437-19.744 51.787-80.564 85.185-126.647 19.165-26.444 37.561-51.106 51.798-69.444 24.185-31.149 26.952-31.996 28.282-32.402 3.778-1.154 8.609-.163 13.972 2.867 9.49 5.364 18.775 15.98 20.698 23.666.452 1.807 1.208 4.83-22.921 40.212-16.627 24.381-37.98 53.738-52.966 74.073-30.818 41.817-79.085 105.364-84.812 108.953-2.569 1.61-5.957 2.248-9.565 2.248zm-26.738-17.331c1.741 3.858 7.623 7.886 15.122 10.323 7.625 2.479 15.07 2.688 18.525.523 3.829-2.628 39.874-48.616 82.362-106.218 55.276-74.938 75.497-106.965 76.092-111.765-1.725-6.42-10.024-15.68-18.257-20.332-4.023-2.274-7.548-3.151-9.945-2.47-4.696 2.688-38.849 46.071-86.168 111.903-52.673 73.281-77.097 112.358-77.731 118.034zm227.933-172.569c7.666 3.966 38.081 109.673 37.533 117.338-.547 7.665-84.264 84.822-91.717 84.29s-23.3-17.24-22.837-23.729 66.572-62.291 70.448-70.338c3.875-8.047-19.317-72.398-20.3-82.185s19.206-29.341 26.873-25.376z"/><path d="M332.975 433.656c-.15 0-.283-.009-.408-.018-8.799-.629-25.724-18.394-25.153-26.4.276-3.861 9.416-12.873 38.631-39.834 14.284-13.182 30.474-28.123 32.058-31.412 2.041-4.321-7.77-36.481-13.041-53.759-3.975-13.03-7.115-23.323-7.494-27.091-.813-8.102 9.261-19.555 16.847-24.708 5.579-3.791 10.303-4.874 13.662-3.138 1.522.788 6.155 3.185 23.09 58.773 6.775 22.241 16.153 55.859 15.789 60.963-.091 1.271-.26 3.636-14.211 18.04-7.832 8.086-18.436 18.328-29.858 28.84-11.466 10.553-22.533 20.248-31.161 27.3-14.093 11.519-17.267 12.443-18.75 12.443zm-20.579-25.924c-.063 4.885 13.875 20.221 20.377 20.905 8.85-2.095 86.369-73.404 89.199-82.062.056-3.484-6.406-28.814-15.305-58.118-11.058-36.41-18.474-54.702-20.95-56.751-1.191-.552-4.095-.124-8.491 2.863-8.035 5.458-15.17 15.213-14.682 20.072.329 3.279 3.716 14.38 7.301 26.132 9.464 31.022 15.466 51.777 12.764 57.388-1.901 3.947-13.844 15.08-33.172 32.917-15.011 13.853-35.526 32.784-37.04 36.653z"/></g><path d="M503.763 183.548c.368-16.441-.459-28.284-2.687-33.591-12.502-29.783-370.932-180.63-409.42-140.809-8.147 8.43-18.781 37.638-29.853 77.045 13.038-5.672 30.001-11.739 46.203-13.599 33.885-3.89 311.709 67.59 395.756 110.955z" fill="#ffd2ed"/><path d="M503.763 186.049c-.393 0-.786-.093-1.146-.278-36.917-19.048-117.738-46.34-216.196-73.007-87.349-23.658-162.262-39.495-178.129-37.687-13.036 1.497-28.767 6.134-45.491 13.408a2.498 2.498 0 0 1-3.403-2.969C71.642 41.932 81.891 15.654 89.859 7.41c8.383-8.674 29.201-9.749 63.642-3.287 111.151 20.855 339.094 119.17 349.881 144.867 2.302 5.484 3.272 17.131 2.881 34.614a2.501 2.501 0 0 1-2.499 2.445zM111.096 69.947c45.944 0 304.419 67.16 390.235 109.573.195-18.005-1.256-25.491-2.559-28.595-3.71-8.838-50.844-36.116-133.75-71.153C282.748 45.003 203.33 18.559 152.579 9.037c-40.116-7.526-54.295-3.149-59.125 1.848-4.915 5.086-13.689 21.599-27.823 70.975 15.515-6.373 29.654-10.321 42.091-11.749.949-.109 2.079-.163 3.374-.163z" fill="#ffd2ed"/></svg></g></svg>